<?xml version="1.0" standalone="no"?>
<!DOCTYPE svg PUBLIC "-//W3C//DTD SVG 20010904//EN"
 "http://www.w3.org/TR/2001/REC-SVG-20010904/DTD/svg10.dtd">
<svg version="1.0" xmlns="http://www.w3.org/2000/svg"
 width="225.000000pt" height="225.000000pt" viewBox="0 0 225.000000 225.000000"
 preserveAspectRatio="xMidYMid meet">
<metadata>
Created by potrace 1.16, written by Peter Selinger 2001-2019
</metadata>
<g transform="translate(0.000000,225.000000) scale(0.100000,-0.100000)"
fill="#000000" stroke="none">
<path d="M677 1942 c-15 -17 -17 -77 -17 -660 l0 -641 22 -15 c33 -24 603 -24
636 0 22 15 22 19 22 245 0 151 3 228 10 224 6 -4 10 -87 10 -216 0 -219 -7
-258 -45 -273 -9 -3 -84 -6 -166 -6 -82 0 -149 -4 -149 -9 0 -8 59 -50 140
-98 19 -12 67 -32 107 -46 40 -13 87 -36 106 -50 l34 -26 137 116 c75 63 136
119 136 123 0 5 -12 22 -26 40 -26 30 -26 35 -28 173 l-1 142 -59 80 c-32 44
-69 101 -82 126 -15 30 -33 50 -52 58 -17 7 -39 21 -51 32 -21 19 -21 27 -21
343 0 300 -1 324 -18 339 -16 15 -54 17 -324 17 -283 0 -306 -1 -321 -18z
m199 -27 c9 -22 244 -22 244 0 0 12 16 15 83 15 51 0 88 -5 95 -12 9 -9 12
-89 12 -299 0 -284 0 -287 -20 -282 -12 3 -29 -2 -40 -12 -38 -34 -19 -139 36
-196 l24 -26 -2 -224 -3 -224 -305 0 -305 0 -3 624 c-1 452 1 628 9 637 17 21
168 19 175 -1z"/>
<path d="M1001 1606 c-7 -8 -15 -33 -18 -56 -6 -43 -23 -55 -23 -16 0 25 -15
36 -37 29 -7 -3 -13 -16 -13 -29 0 -13 -5 -24 -11 -24 -6 0 -18 -8 -27 -17
-16 -16 -16 -16 2 -10 12 5 23 3 28 -5 5 -9 8 -6 8 10 0 12 5 22 10 22 6 0 10
8 10 17 0 24 16 4 24 -28 4 -19 1 -29 -9 -33 -8 -3 -15 -11 -14 -18 0 -10 2
-10 6 0 7 19 23 14 23 -7 0 -11 -8 -22 -17 -24 -10 -3 2 -5 27 -5 25 0 39 2
33 5 -25 9 -14 41 15 46 l27 4 -27 2 c-36 1 -38 32 -5 65 20 20 25 21 37 8 10
-11 11 -19 2 -33 -7 -11 -8 -19 -3 -19 5 0 11 5 13 11 4 12 24 16 101 18 l47
1 0 50 0 50 -48 0 c-35 0 -54 -5 -65 -18 -22 -24 -22 -43 1 -35 16 6 16 6 0
-10 -21 -21 -38 -22 -38 -2 0 8 -4 15 -9 15 -5 0 -11 10 -13 22 -4 27 -21 33
-37 14z"/>
<path d="M1540 474 c-74 -64 -136 -119 -138 -123 -1 -4 10 -19 25 -33 l28 -26
130 109 c72 61 134 114 139 119 8 8 -31 71 -43 69 -3 0 -67 -52 -141 -115z"/>
</g>
</svg>
