<svg xmlns="http://www.w3.org/2000/svg" width="266.667" height="266.667" version="1.0" viewBox="0 0 675 675" stroke="#e9bf6b">
  <path d="M203.9 91.2c-2.3 1.8-5 4.9-6 6.8-1.8 3.3-1.9 10.4-1.9 192v188.5l2.1 4c2.5 4.6 3.8 5.8 9.9 8.6 4.5 2.1 4.7 2.1 90.5 1.4 76.3-.6 86.5-.8 90.5-2.3 5.1-1.9 7.2-3.7 10-8.9 2-3.7 2-5.3 1.9-69.8-.1-64.4 0-66 1.8-66.3 4.4-.7 4.4-.7 4.4 67.2 0 36.6-.4 65.2-.9 66.3-.5 1-1.7 3.5-2.7 5.6-2.3 4.7-4.9 7.6-9.7 10.5l-3.7 2.3-45-.2c-24.7 0-45.5.2-46 .6-2.2 1.3-1 3.4 3.7 6.3 2.6 1.7 8 5.3 12 8.1 4.1 2.8 7.5 5.1 7.7 5.1.2 0 3.3 2 6.9 4.5 3.7 2.5 7.3 4.5 8.1 4.5.7 0 1.6.4 2 1 .3.5 5.4 3.2 11.3 6s12 5.8 13.5 6.6c1.6.8 3.6 1.4 4.6 1.4.9 0 2.6.7 3.7 1.5 1 .8 3.3 1.5 5 1.5 1.6 0 3.9.7 5 1.5 1 .8 4 1.5 6.5 1.5 4.8 0 8.2 2.3 20.1 13.6 2.6 2.4 4.9 4.4 5.3 4.4.4 0 2.4-1.7 4.4-3.8 2.1-2.1 6-5.6 8.7-7.7 2.7-2.1 5.4-4.4 5.9-5 .6-.6 5.5-4.9 11-9.5 5.5-4.5 10.2-8.6 10.5-8.9.3-.4 4.3-3.8 8.9-7.5 4.6-3.7 9.3-7.7 10.5-8.8 1.1-1.1 5.3-4.6 9.1-7.7 3.9-3.1 7.6-6.2 8.4-6.9.8-.7 2.4-2 3.7-2.9 2.6-1.7 3.2-5.7 1.1-7-.7-.4-3-3.1-5.2-5.8-2.2-2.8-5-6.1-6.2-7.4-5.2-5.5-6.1-8.1-5.2-15.6.5-3.9 1.1-19 1.5-33.6.6-23.7.5-27.4-1.1-34.5-1-4.3-2.4-8.6-3.2-9.5-.7-.8-1.3-2.1-1.3-2.7 0-.7-.4-1.2-.8-1.2-1 0-8.2-9.6-8.2-11 0-.5-.4-1-.9-1-.4 0-2.1-1.9-3.7-4.3-1.6-2.3-3.2-4.4-3.6-4.5-.5-.2-.8-1-.8-1.8s-.4-1.4-.9-1.4c-1 0-3.4-3.8-4.7-7.3-.3-.9-1-1.7-1.5-1.7s-1.4-1-2-2.3c-1.5-3.4-3.6-6.9-4.6-7.6-.4-.3-1.8-2.6-3.1-5.1-1.2-2.5-2.6-5.2-3.1-6-2.7-5.2-4.1-8.3-4.1-9.3 0-1.4-4.4-5.7-5.8-5.7-.5 0-1.5-.7-2.2-1.5-.7-.8-2-1.5-2.9-1.5-3.2 0-15-7-19-11.4l-2.4-2.6-.1-96.7-.1-96.8-2.8-3.7c-1.6-2-4.4-4.6-6.3-5.7-3.5-2.1-4.5-2.1-93.9-2.1h-90.3l-4.3 3.2zm58.1 10.3.5 4 36.3.3c28.6.2 36.2 0 36.3-1 0-.7.2-2.6.2-4.2l.2-3 24.9.2c14 .2 25.6.7 26.7 1.2 5.1 2.8 4.9-1.2 4.9 92.2 0 92.3.1 89.9-4.5 84.8-2.9-3.2-8.3-2.7-12.5 1.3-6.4 5.9-7.4 8.3-7.3 17.7 0 5.4.7 9.9 1.7 12.4.9 2.1 1.6 4.8 1.6 6 0 1.2.7 3.1 1.5 4.2.8 1 1.5 2.9 1.5 4 0 1.2.7 2.7 1.5 3.4.8.7 1.5 1.8 1.5 2.5 0 2.2 6.1 9.6 10.5 12.7l4.5 3.2v66.5c-.1 66-.1 66.6-2.1 69.1l-2.1 2.5H210.2l-2.1-2.5-2-2.5-.1-186.6V103.3l2.6-2.4c2.5-2.4 3-2.4 25.2-3 12.5-.3 23.8-.5 25.2-.5 2.2.1 2.6.7 3 4.1zm126.2 188.9c1 .7 2.5 2.9 3.3 5 .8 2 2.2 3.6 3 3.6.8 0 1.5.8 1.5 1.9 0 2.3 8.6 9.7 16.7 14.5 6.9 4.1 12.1 9.4 14.9 15.4 1 2.3 2.5 4.2 3.2 4.2.6 0 1.2.9 1.2 2.1 0 1.1 1.5 4 3.3 6.4 1.7 2.4 5.2 7.6 7.7 11.4 2.5 3.9 5.1 7.1 5.8 7.1.6 0 1.2 1 1.2 2.2 0 1.2.7 2.8 1.5 3.7.9.9 4 4.8 6.9 8.7C469.1 390.8 469 390 469 433c.1 39.3 0 38.4 6.8 48.9 2.6 3.9 4.2 7.6 4.2 9.4 0 3.7-2.1 5.7-30 28.9-11.3 9.4-21.8 18.4-23.4 20-1.6 1.6-4.9 4.1-7.4 5.5l-4.4 2.6-4.1-2.4c-2.3-1.2-6.2-3.7-8.7-5.4-2.5-1.7-7.2-3.9-10.5-4.9-3.3-.9-8.7-2.7-12-3.8-3.3-1.1-7-2.1-8.3-2.2-1.2 0-2.6-.6-3-1.2-.8-1.4-12.8-6.4-15.2-6.4-1 0-2.3-.6-2.9-1.3-.6-.8-4.2-3.4-8-5.8-3.9-2.4-7-4.9-7.1-5.5 0-2 4-2.4 27.5-2.4 18.1 0 23.6-.3 25.8-1.5 1.5-.8 3.4-1.2 4.1-.9 3.3 1.3 15.1-8.9 18.9-16.2 5.3-10.2 5.1-7.7 5.5-70.9.4-60.4-.1-69.5-3.5-69.5-.7 0-1.3-.9-1.3-2s-.4-2-1-2c-.5 0-1-.7-1-1.6 0-.9-2.5-2.7-6.2-4.4-7.9-3.6-14.8-11.7-19.7-22.8-6.9-15.8-4.3-31.2 4.1-24.8z"/>
  <path d="M278.3 189.2c-.6.7-1.3 2.1-1.7 3.2-.5 1.4-1.3 1.7-3.5 1.3-3.5-.7-6.7 1.3-5.8 3.7.4.9 1.3 1.6 2.2 1.6.8 0 2 1.1 2.5 2.5 1.2 3.3 4.6 3.3 5.4.1.3-1.3 1.5-2.6 2.5-2.9 2.5-.6 3.9-7 2.1-9.2-1.5-1.8-2.5-1.9-3.7-.3zM301.9 191c-.7 1.9-1.8 3-3 3-1.6 0-1.9.7-1.9 4.8s-.4 5.1-2.2 5.9c-2.1.9-2.2 1.5-1.9 9.4.2 6.8-.1 8.8-1.3 9.8-3.2 2.7-4.6.6-4.6-6.8 0-6.3-.2-7.2-2.2-8.2-1.3-.7-2.9-2-3.6-3.1-1.8-2.5-2.9-2.3-3.6.6-.4 1.5-1.4 2.6-2.9 2.8-2 .3-2.2 1-2.7 7.3l-.5 7-3.8-.2c-3.5-.2-4 .1-5 2.7-.8 2.2-1.8 3-3.5 3-1.9 0-2.3.5-2 2.2.5 3.5 4.5 3.7 5.4.4.3-1.4 1.2-2.6 1.8-2.6 1.8 0 3.5 2.1 2.9 3.6-.4 1 .3 1.4 2.1 1.4 2.5 0 2.6-.3 2.6-5 0-4.3.3-5 1.9-5 2.6 0 3.6-1.7 3.6-6 0-3.1.3-3.5 2.5-3.5 2.4 0 2.5.2 2.3 6.7-.2 6.5-.1 6.8 2.3 7.4 2 .5 2.4 1.2 2.2 3.3-.2 1.8-1 2.7-2.5 2.9-1.3.2-2.3 1-2.3 1.7s-1 1.5-2.2 1.7c-3.1.4-3.3 5.3-.3 5.3 1.4 0 2.1-.8 2.3-2.8.3-2.3.8-2.8 2.5-2.5 1.9.3 2.2 1 2.5 5.5l.3 5.2-4.8.3c-4 .3-4.8.6-4.8 2.3 0 1.9.7 2 12 2 6.6 0 12.3-.4 12.7-.9 1.1-1.6-.3-3.6-2.7-3.6-2.6 0-3.5-1.7-3.5-6.5 0-4 1-4.5 8.9-3.8l6.1.6v3.8c0 3.8 2.3 7.3 4.4 6.6 1.5-.5 2.5-6.9 1.5-9.6-.5-1.1-1.7-2.1-2.8-2.1-1 0-2.1-.9-2.4-2-.4-1.6-1.5-1.9-7.8-2.2l-7.4-.3-.3-4.9c-.4-6.8.4-9.4 3.1-9.8 1.4-.2 2.3-1.1 2.5-2.5.2-1.3 1.1-2.3 2.5-2.5 1.3-.2 2.3-1.2 2.7-2.8.4-1.6 1.3-2.5 2.5-2.5s2.1.9 2.5 2.5c.4 1.6 1.4 2.6 2.8 2.8 1.8.3 2.2 1 2.2 4.2 0 3.3-.5 4.1-2.7 5.2-3.5 1.7-4.1 4.3-1.3 5.8 2.5 1.4 5-.2 5-3.1 0-1 .8-2 1.8-2.3.9-.3 2.2-1.5 2.7-2.7 1.2-2.6 2.7-2.7 4-.2 2.3 4.1 4.3 4.3 5.7.3.7-2.1 1.5-2.9 2.7-2.6.9.3 7.2.6 14.1.8l12.5.3.5-14c.3-7.7.3-14.6.1-15.3-.2-.9-4.2-1.2-15.2-1.2-14.3 0-14.9.1-14.9 2 0 1.3-1 2.4-2.5 3-1.4.5-2.5 1.6-2.5 2.5 0 .9-1.2 2-2.6 2.5-2.2.9-2.5 1.5-2.2 4.7.4 4.6 2.9 5.6 4.6 1.8 1.6-3.5 4.6-3 5 .8.3 2.2-.1 3-1.6 3.4-1.1.3-2.2 1.3-2.5 2.4-.4 1.6-1.4 1.9-5.6 1.9h-5l-.3-4.8c-.3-4-.6-4.7-2.5-5-1.9-.3-2.3-1-2.3-4.1 0-2.6-.8-4.7-2.5-6.7-1.4-1.6-3-3.5-3.6-4.2-1.6-2-2.9-1.4-4 1.8zm54.6 6.2c.3 1.8.5 6.2.3 9.8l-.3 6.5h-20l-.3-6.5c-.2-3.6 0-8 .3-9.8l.6-3.2h18.8l.6 3.2zm-49 4.8c0 2-.6 2.6-2.7 2.8-2.5.3-2.8 0-2.8-2.8s.3-3.1 2.8-2.8c2.1.2 2.7.8 2.7 2.8z"/>
  <path d="M342.7 199.7c-.4.3-.7 2.3-.7 4.3 0 3.4.3 3.8 3.1 4.4 4.5.9 6.9-.8 6.9-4.8 0-2.2-.6-3.6-1.6-4-2.1-.8-6.9-.8-7.7.1zM317.1 189.4c-2 2.4-.6 4.8 2.6 4.4 2.2-.2 2.8-.8 2.8-2.8 0-3-3.5-4-5.4-1.6zM232.7 189.6c-.9 1-.9 27.6.1 28.9.4.7 6 .9 15 .7 16.8-.5 15.4 1.1 15-17.2l-.3-12.5-14.6-.3c-8-.1-14.8.1-15.2.4zm23.8 14.4v9.5h-19l-.3-8.4c-.2-4.6 0-9 .2-9.8.4-1.1 2.7-1.3 9.8-1.1l9.3.3v9.5z"/>
  <path d="M242.7 199.6c-.9 1-.9 8.4.1 8.5 7.8 1.2 9.5.2 9-5.3-.3-3.1-.6-3.3-4.3-3.6-2.3-.2-4.4 0-4.8.4zM248.2 224.3c-.7.8-1.1 3.1-.9 5.3.2 3.6 0 3.9-2.3 3.9-1.8 0-2.6-.6-2.8-2.1-.2-1.7-1.2-2.3-4-2.6-5.3-.7-6.2-.1-6.2 4.1 0 5.4.8 6 7.8 5.9 3.5 0 6.8.4 7.3.9.6.6.9 3.9.7 7.4l-.3 6.4h-4c-4.4 0-6.9 1.1-5.9 2.6.3.5-.8 1.4-2.5 2-2.3.8-3.1 1.7-3.1 3.4 0 3.2.6 3.4 7.9 2.8 5.4-.5 6.4-.9 7.2-2.9.7-2 1.5-2.4 5.3-2.4 3.9 0 4.5.3 5 2.6.6 2.1 1.1 2.5 3 2 1.3-.3 4.5-.3 7 0l4.5.7.3 4.6c.3 4.2.5 4.6 2.8 4.6 2.2 0 2.5-.5 2.8-4 .2-2.9 1.1-4.6 3-6.2 2.6-2.2 2.6-2.4.9-3.7-2.4-1.8-4.5-1.1-4.9 1.7-.2 1.4-1.1 2.3-2.5 2.5-1.9.3-2.3-.1-2.3-2.2 0-2.3-.4-2.5-4.7-2.8-4.1-.3-4.8-.6-5.1-2.6-.3-1.9-.9-2.2-5.2-2.2-5.3 0-7-1.8-4.3-4.5 1.2-1.2 2.6-1.5 5.4-1 3.5.6 3.9.5 4.5-1.9.5-2.3 1.1-2.6 5.1-2.6 4.2 0 4.4-.1 4.1-2.8-.2-1.9-.9-2.8-2.4-3-1.2-.2-2.4-1.2-2.7-2.3-.4-1.3-1.2-1.9-2.4-1.7-1.5.3-1.7 1.1-1.5 5.1l.4 4.8-5.4-.3-5.3-.3-.5-9.9c-.5-9.8-1.5-12.2-3.8-9.3zM302.7 223.7c-.4.3-.7 1.7-.7 3 0 1.8.5 2.3 2.5 2.3 1.4 0 2.8-.7 3.1-1.5 1.1-2.7-3-5.8-4.9-3.8zM346.5 228.9c-8.3.6-9 .8-9.3 2.8-.3 2.2-2.7 3.7-4.3 2.7-.5-.3-.9-1.6-.9-3 0-3.4-4.7-3.5-5.6 0-.3 1.3-1.4 2.6-2.5 2.9-2.7.7-2.3 3.5.6 4.3 1.6.4 2.5 1.3 2.5 2.5s-1 2.3-2.5 2.9c-2.7 1-3 1.7-1.6 3.8.5.8 2.3 1.2 4.7 1 3.9-.3 3.9-.3 4.4-5.3.4-4.1.8-5 2.5-5 1.2 0 2.1.9 2.5 2.5.5 2.1 1.3 2.6 5 3 4.4.5 4.5.6 4.5 4.2 0 4.3 1.4 6.2 3.9 5.2 1.2-.5 1.7-1.6 1.5-3.8-.5-5.4 3.3-8.1 4.5-3.2.8 3.2 3.7 4.2 5.3 2 2-2.8 1.5-4.4-1.5-5-1.5-.3-3.2-1.5-3.7-2.7-.9-2-1.6-2.2-7.7-1.9-5.6.3-6.9.1-7.4-1.3-.4-.9 0-2.3.8-3.2 1.3-1.2 2.8-1.3 9.9-.4 7.5.9 8.5.8 9.7-.7.7-.9 1.1-2.3 1-3.2-.4-1.7-3.2-1.9-16.3-1.1z"/>
  <path d="M232.7 243.6c-1.3 1.3-.7 5.5.9 6.1 2.4.9 5.1-2.3 3.8-4.5-1.2-1.9-3.6-2.7-4.7-1.6zM263 251c0 2.4 6.2 3.9 8.5 2 2.5-2.1.6-4-4.1-4-3.7 0-4.4.3-4.4 2zM307 255.9c0 2.7.4 3.1 2.6 3.1s2.5-.4 2.2-2.8c-.2-1.9-.9-2.8-2.5-3-2-.3-2.3.1-2.3 2.7zM317.3 254.6c-.2.5-.2 6.2-.1 12.5l.3 11.4 7.5-.2c9-.3 12 .2 12 2.2 0 .9 1.2 2 2.6 2.5 2.2.9 2.5 1.5 2.2 5.1-.2 3-.9 4.5-2.3 5.3-1.1.6-2.3 1.5-2.7 2.1-1.1 1.5 1.2 3.5 4.2 3.5 4.9 0 6-.9 6-5.1 0-3.3.4-4.1 2.5-4.9 2-.8 2.5-1.6 2.5-4.4 0-4.2-1.8-5.8-5.7-5-3.3.6-5.7-1.3-5.1-4.3.3-1.4 1.3-1.8 4.3-1.9 6.8-.2 6.6-.1 6.3-4.7l-.3-4.2h-4.2c-5.2-.1-5.8-.6-5.6-5.5.1-2.2-.3-4.3-1-4.7-1.9-1.2-22.9-1-23.4.3zm19.9 5.6c.2.7.4 4 .4 7.3l-.1 6h-15l-.3-5.9c-.2-3.2-.1-6.5.2-7.2.7-1.9 14.2-2 14.8-.2z"/>
  <path d="M327.1 265.4c-1 1.2-.8 1.7.9 2.6 2.5 1.3 4 .6 4-2.1 0-2.3-3.2-2.6-4.9-.5zM357.3 253.7c-.7.2-1.3 1.3-1.3 2.3 0 1.1-.9 2.4-2 3-1.1.6-2 2-2 3 0 1.5.7 2 2.9 2 1.6 0 3.6.3 4.5.6 2.1.8 3.9-4 3.1-8.3-.6-3.2-2-3.9-5.2-2.6zM287.8 264.1c-.5.4-.8 1.5-.6 2.5.3 1.4 1.1 1.8 3.3 1.6 5.3-.4 7.5.6 7.5 3.4 0 2.5-.1 2.5-7.5 2.3-7.7-.3-10.1.5-8.5 3.1.6.9 2.6 1.4 5.7 1.5 4.4 0 4.8.2 4.8 2.5 0 2.2-.4 2.5-4 2.5-4.6.1-6.5 1-6.5 3.1 0 .8-1.1 1.9-2.5 2.4-2.1.8-2.4 1.5-2.2 4.6.2 3.3-.1 3.8-2.3 4.4-1.8.4-2.5 1.3-2.5 3s.7 2.6 2.5 3c3.3.8 3.2 3.1-.2 4.8-2.4 1.1-2.8 1.9-2.8 5.8v4.4h10v-7.4c0-4.1.4-7.7.8-8 .4-.2 2.7-.2 4.9.1 3.3.4 4.3 1 4.5 2.7.4 3.1 3.6 3.3 4.8.2.9-2.5 1.3-2.6 8-2.6 6.1 0 7 .2 7 1.8 0 1.1-1.1 2.4-2.5 3-3 1.4-3.3 3.8-.6 4.7 1.1.3 2.1 1.6 2.3 2.8.2 1.6 1.1 2.3 3.1 2.5 2.5.3 3.2-.5 2.8-3.1-.1-.4 1.2-1.3 2.9-1.8 3.4-1.2 4.3-4.9 1.1-4.9-2.6 0-3.9-1.9-4.3-6.5l-.3-4H307c-9.1 0-9.5.1-9.8 2.2-.4 3.1-5.2 3.3-5.2.3 0-1.3-.9-2.2-2.5-2.6-2.2-.5-2.5-1.2-2.5-5V289h4.8c2.6 0 5.7-.3 6.9-.6 1.8-.5 2.5-.1 3.2 1.9 1 2.5 1.4 2.6 10.3 2.9 8.9.3 9.2.4 9.8 2.8.8 3.4 3.7 3.8 4.9.7.5-1.3 1.9-2.7 3.1-3 1.8-.5 2.1-1.1 1.8-5.4-.2-4-.6-4.8-2.3-4.8-1.2 0-2.1.9-2.5 2.5-.5 2.2-1.1 2.5-5 2.5s-4.5-.3-5-2.5c-.5-2.3-1.1-2.6-4-2.2-.5.1-1 1.1-1 2.2s-.7 2.3-1.5 2.6c-2.4 1-4.5-1.5-4.5-5.2 0-2.7.6-3.6 3-4.9 1.7-.9 3-2 3-2.6 0-.5-1.3-1.5-3-2-3.8-1.4-3.8-3.4.1-5.4 5.4-2.8 3.1-4-9-4.5-6.2-.3-11.8-.2-12.3.1zM247.8 270.7c-.7 1.6-2.3 2.9-3.6 3.1-1.9.3-2.2.9-2.2 4.7 0 7.1 2.7 7.1 8-.1 3.1-4 3.8-4.4 7.6-4.4 2.4 0 4.5.4 4.8.9 1 1.6-.5 4-2.7 4.3-1.4.2-2.2 1-2.2 2.2 0 1.8.8 2 7.2 2.3 5.5.2 7.2-.1 7.7-1.2.6-1.7-1.9-4.5-4-4.5-1 0-1.4-1.2-1.4-3.9 0-2.2-.5-4.3-1.2-4.7-.6-.4-4.6-.9-8.9-1.1-7.7-.4-7.8-.3-9.1 2.4zM232 276c0 3.5 2.2 4.9 4.6 2.9 2.4-2 1.4-5.3-1.8-5.7-2.5-.3-2.8 0-2.8 2.8zM357.3 273.7c-.8.3-1.3 2.3-1.3 4.8 0 3.6.4 4.5 2.1 5 2.6.9 4.1-.5 4.5-4.2.6-5.4-1.2-7.3-5.3-5.6zM232.5 289.2c-.3.7-.4 7.7-.3 15.3l.3 14 15.3.3 15.2.3V289h-8.9c-4.8 0-11.6-.3-14.9-.6-4.9-.5-6.3-.4-6.7.8zm24.3 14.1.3 9.8-9.8-.3-9.8-.3-.3-8.5c-.4-10.7.1-11.2 11.3-10.8l8 .3.3 9.8z"/>
  <path d="M245.5 298.9c-2.7.6-3 1-3 4.6v4h4.5c4.4 0 4.5-.1 4.8-3.3.3-3.1-1.2-6.4-2.7-6.1-.3.1-1.9.4-3.6.8zM356.7 293.6c-1.4 1.5-.6 4.3 1.4 4.9 2.5.8 4.2-.6 3.7-3.1-.3-1.9-3.8-3.1-5.1-1.8zM341.8 304.5c-.4.4-.4 2.2-.1 4.1.4 2.6.2 3.5-1.3 4.1-1 .4-1.9.2-2.2-.5-.2-.6-1.2-2.2-2.2-3.4-1.5-1.9-2-2.1-3.4-.9-2.4 2-1.6 5.5 1.2 5.9 1.3.2 2.2 1 2.2 2.1 0 1 .7 2.4 1.5 3.1 2.3 1.9 4.5.4 4.5-3 0-3.1 0-3.1 4.7-2.8 4.1.3 4.8.6 5.3 2.8.5 2.2 1.2 2.5 5.3 2.8l4.7.3v-7.5c0-7.4-.1-7.6-2.4-7.6-1.8 0-2.7.8-3.4 3-1.2 3.4-3.9 3.2-4.4-.3-.2-1.8-1.1-2.2-4.8-2.5-2.5-.2-4.9 0-5.2.3zM292 316c0 1.6.3 3 .8 3.1 7.7 1.1 10.9-.2 9.7-4.1-.5-1.7-1.5-2-5.6-2-4.8 0-4.9.1-4.9 3zM224.4 351.1c-1.4 1.5-1.6 2.4-.7 3.7.7 1.2.7 2.2-.1 3.4-.8 1.3-.6 2.2.8 3.7 2.4 2.7 6.7 2.7 8.9.1 1.7-2.1 4.5-1.8 6 .7.4.7 1.6 1.3 2.6 1.3 2.6 0 7.1-2.3 7.1-3.8 0-1.7-2.7-2.7-4.3-1.4-.8.7-1.8.6-3.1-.4-1.9-1.3-1.9-1.4-.1-3.4 1.3-1.4 2.2-1.7 2.9-1 1.5 1.5 3.6 1.2 3.6-.6 0-2.3-2.5-4.4-5.3-4.4-2.6 0-6.1 3.3-7.2 6.8-1 3.3-2.5 1.6-2.5-2.9 0-3.8-.1-3.9-3.3-3.9-2.2 0-4.1.8-5.3 2.1zM252.1 353.9c-3.2 7.5-2.6 11.8 1.1 8.4 1.7-1.5 2.1-1.5 5.1-.1 3.7 1.8 8.6 1.3 9.4-.8.8-2.1 2.9-1.7 4.6.8 2.4 3.7 3.9 1.1 3.5-6.3-.2-4.9-.7-6.4-1.8-6.4-.8 0-1.6 1-1.8 2.2-.4 3-1.6 2.9-3.6-.3-2.4-3.5-4-2.6-4.6 2.7-.6 5.3-3.1 6-4.1 1.2-.7-3.7-2.6-6.3-4.4-6.3-.7 0-2.2 2.2-3.4 4.9zM285.3 351.6c-4.8 5.4-1 12.4 6.6 12.4h4.1v-5.8c0-4.4-.5-6.3-1.8-7.5-2.7-2.4-6.4-2-8.9.9zm7.1 3c.8 2.1-.1 3.4-2.5 3.4-2.1 0-2.5-2-.7-3.8 1.6-1.6 2.5-1.5 3.2.4zM299.7 349.7c-1.1 1-.8 13.1.3 13.8.6.3 1.5-.6 2-2.1l1.1-2.7 2.7 2.6c1.6 1.5 3.3 2.7 4 2.7 1.5 0 1.6-4.2.1-5.7-.8-.8-.7-1.6.2-3.1 1.1-1.8 1-2.4-.5-4.1-1.9-2.1-8.4-3-9.9-1.4zM319.1 351.6c-1.2 1.5-2.1 3.7-2.1 4.9 0 3.5 3.7 7.5 6.9 7.5 3.5 0 7-3.5 5.3-5.2-1-1-1.7-1-3.2 0-1.6 1-2.1.9-2.9-.7-1.2-2.2 1.1-6.3 2.3-4.3 1.1 1.8 3.6 1.4 3.6-.6 0-4.7-6.6-5.8-9.9-1.6zM333.3 351.6c-3 3.4-2.9 7.5.2 10.2 5 4.4 10.5 1.6 10.5-5.3 0-7.1-6.3-10-10.7-4.9zm7 3.6c.7 2.1-.4 3.8-2.3 3.8-1 0-2-.6-2.3-1.3-.7-2 .4-3.7 2.3-3.7 1 0 2 .6 2.3 1.2zM347.4 350.4c-.3.7-.4 4-.2 7.2.3 5.7.4 5.9 3.2 6.2 1.9.2 3.6-.4 5.2-1.9l2.4-2.3 2 2.2c1.5 1.6 3.2 2.2 6.4 2.2h4.4l-.1-7.5V349h-4.9c-4.3 0-5 .3-5.9 2.7l-1 2.6-2.7-2.6c-3-2.9-7.9-3.6-8.8-1.3zm6.6 6.1c0 .7-.6 1.8-1.4 2.4-1.7 1.4-3-1.1-2-4.1.4-1.5.9-1.7 2-.7.8.6 1.4 1.7 1.4 2.4zM496 505.1c-3.6 3.4-8.5 7.8-11 9.8-7.6 6.2-9.2 7.5-12.9 10.9-2 1.8-6.3 5.4-9.6 8-3.3 2.5-7.1 5.7-8.5 7-1.4 1.4-5.6 5-9.5 8.1-3.8 3-8.6 7-10.5 8.7-5.2 4.8-12.7 10.4-13.9 10.4-1.7 0-1.3 3.8.7 5.9 3.7 4 6.9 7.8 9.6 11.3 1.6 2.1 3.4 3.8 4 3.8.7 0 4.1-2.8 7.6-6.1 3.6-3.4 9.1-8.2 12.3-10.6 3.2-2.5 7.5-6.1 9.5-8 2-1.9 5.6-4.8 8-6.5 2.3-1.7 4.2-3.5 4.2-4 0-.4.5-.8 1.1-.8.5 0 2.2-1.3 3.7-2.8 1.5-1.5 5-4.6 7.7-6.7 6.3-5 9.3-7.6 11.4-9.6.9-.8 3.8-3.3 6.6-5.5 2.7-2.1 6.1-4.9 7.5-6.2 1.4-1.2 3-2.2 3.7-2.2 2.5 0 1.3-4.4-2-7.4-4.1-3.8-9.7-11-9.7-12.5 0-2.6-4-.6-10 5z"/>
</svg>
